<svg width="225" height="78" viewBox="0 0 225 78" fill="none" xmlns="http://www.w3.org/2000/svg">
<path d="M68.6866 41.9552C70.3929 41.9552 71.7761 40.5719 71.7761 38.8656C71.7761 37.1593 70.3929 35.7761 68.6866 35.7761C66.9803 35.7761 65.597 37.1593 65.597 38.8656C65.597 40.5719 66.9803 41.9552 68.6866 41.9552Z" fill="#00183D"/>
<path fill-rule="evenodd" clip-rule="evenodd" d="M73.8395 38.8656C73.8395 41.7115 71.5325 44.0186 68.6866 44.0186C65.8406 44.0186 63.5336 41.7115 63.5336 38.8656C63.5336 36.0197 65.8406 33.7126 68.6866 33.7126C71.5325 33.7126 73.8395 36.0197 73.8395 38.8656ZM71.7761 38.8656C71.7761 40.5719 70.3929 41.9552 68.6866 41.9552C66.9802 41.9552 65.597 40.5719 65.597 38.8656C65.597 37.1593 66.9802 35.7761 68.6866 35.7761C70.3929 35.7761 71.7761 37.1593 71.7761 38.8656Z" fill="#00183D"/>
<path d="M61.2985 64.2537C63.6725 64.2537 65.597 62.2691 65.597 59.8209C65.597 57.3727 63.6725 55.388 61.2985 55.388C58.9245 55.388 57 57.3727 57 59.8209C57 62.2691 58.9245 64.2537 61.2985 64.2537Z" fill="#00183D"/>
<path fill-rule="evenodd" clip-rule="evenodd" d="M67.6604 59.8209C67.6604 63.3484 64.8715 66.3171 61.2985 66.3171C57.7255 66.3171 54.9366 63.3484 54.9366 59.8209C54.9366 56.2934 57.7255 53.3246 61.2985 53.3246C64.8715 53.3246 67.6604 56.2934 67.6604 59.8209ZM65.597 59.8209C65.597 62.2691 63.6725 64.2537 61.2985 64.2537C58.9245 64.2537 57 62.2691 57 59.8209C57 57.3727 58.9245 55.388 61.2985 55.388C63.6725 55.388 65.597 57.3727 65.597 59.8209Z" fill="#00183D"/>
<path d="M15.6269 65.0597C18.446 65.0597 20.7313 62.7142 20.7313 59.8209C20.7313 56.9276 18.446 54.5821 15.6269 54.5821C12.8077 54.5821 10.5224 56.9276 10.5224 59.8209C10.5224 62.7142 12.8077 65.0597 15.6269 65.0597Z" fill="#00183D"/>
<path fill-rule="evenodd" clip-rule="evenodd" d="M22.7948 59.8209C22.7948 63.803 19.6358 67.1232 15.6269 67.1232C11.6179 67.1232 8.45895 63.803 8.45895 59.8209C8.45895 55.8389 11.6179 52.5187 15.6269 52.5187C19.6358 52.5187 22.7948 55.8389 22.7948 59.8209ZM20.7313 59.8209C20.7313 62.7142 18.446 65.0597 15.6269 65.0597C12.8077 65.0597 10.5224 62.7142 10.5224 59.8209C10.5224 56.9276 12.8077 54.5821 15.6269 54.5821C18.446 54.5821 20.7313 56.9276 20.7313 59.8209Z" fill="#00183D"/>
<path d="M8.10448 44.1045C10.9236 44.1045 13.209 41.8192 13.209 39C13.209 36.1809 10.9236 33.8956 8.10448 33.8956C5.28535 33.8956 3 36.1809 3 39C3 41.8192 5.28535 44.1045 8.10448 44.1045Z" fill="#00183D"/>
<path fill-rule="evenodd" clip-rule="evenodd" d="M15.2724 39C15.2724 42.9588 12.0632 46.1679 8.10448 46.1679C4.14575 46.1679 0.936567 42.9588 0.936567 39C0.936567 35.0413 4.14575 31.8321 8.10448 31.8321C12.0632 31.8321 15.2724 35.0413 15.2724 39ZM13.209 39C13.209 41.8192 10.9236 44.1045 8.10448 44.1045C5.28535 44.1045 3 41.8192 3 39C3 36.1809 5.28535 33.8956 8.10448 33.8956C10.9236 33.8956 13.209 36.1809 13.209 39Z" fill="#00183D"/>
<path d="M15.6269 23.418C18.446 23.418 20.7313 21.1326 20.7313 18.3135C20.7313 15.4943 18.446 13.209 15.6269 13.209C12.8077 13.209 10.5224 15.4943 10.5224 18.3135C10.5224 21.1326 12.8077 23.418 15.6269 23.418Z" fill="#00183D"/>
<path fill-rule="evenodd" clip-rule="evenodd" d="M22.7948 18.3135C22.7948 22.2722 19.5856 25.4814 15.6269 25.4814C11.6681 25.4814 8.45895 22.2722 8.45895 18.3135C8.45895 14.3547 11.6681 11.1456 15.6269 11.1456C19.5856 11.1456 22.7948 14.3547 22.7948 18.3135ZM20.7313 18.3135C20.7313 21.1326 18.446 23.418 15.6269 23.418C12.8077 23.418 10.5224 21.1326 10.5224 18.3135C10.5224 15.4944 12.8077 13.209 15.6269 13.209C18.446 13.209 20.7313 15.4944 20.7313 18.3135Z" fill="#00183D"/>
<path d="M59.2836 20.194C60.3964 20.194 61.2985 19.2919 61.2985 18.179C61.2985 17.0662 60.3964 16.1641 59.2836 16.1641C58.1708 16.1641 57.2687 17.0662 57.2687 18.179C57.2687 19.2919 58.1708 20.194 59.2836 20.194Z" fill="#00183D"/>
<path fill-rule="evenodd" clip-rule="evenodd" d="M63.3619 18.1791C63.3619 20.4315 61.536 22.2574 59.2836 22.2574C57.0312 22.2574 55.2052 20.4315 55.2052 18.1791C55.2052 15.9266 57.0312 14.1007 59.2836 14.1007C61.536 14.1007 63.3619 15.9266 63.3619 18.1791ZM61.2985 18.1791C61.2985 19.2919 60.3964 20.194 59.2836 20.194C58.1708 20.194 57.2686 19.2919 57.2686 18.1791C57.2686 17.0662 58.1708 16.1641 59.2836 16.1641C60.3964 16.1641 61.2985 17.0662 61.2985 18.1791Z" fill="#00183D"/>
<path d="M39 13.209C41.8191 13.209 44.1045 10.9236 44.1045 8.10448C44.1045 5.28535 41.8191 3 39 3C36.1809 3 33.8955 5.28535 33.8955 8.10448C33.8955 10.9236 36.1809 13.209 39 13.209Z" fill="#00183D"/>
<path fill-rule="evenodd" clip-rule="evenodd" d="M46.1679 8.10448C46.1679 12.0632 42.9587 15.2724 39 15.2724C35.0413 15.2724 31.8321 12.0632 31.8321 8.10448C31.8321 4.14575 35.0413 0.936567 39 0.936567C42.9587 0.936567 46.1679 4.14575 46.1679 8.10448ZM44.1045 8.10448C44.1045 10.9236 41.8191 13.209 39 13.209C36.1809 13.209 33.8955 10.9236 33.8955 8.10448C33.8955 5.28535 36.1809 3 39 3C41.8191 3 44.1045 5.28535 44.1045 8.10448Z" fill="#00183D"/>
<path d="M39 64.791C36.1809 64.791 33.8955 67.0764 33.8955 69.8955C33.8955 72.7146 36.1809 75 39 75C41.8191 75 44.1045 72.7146 44.1045 69.8955C44.1045 67.0764 41.8191 64.791 39 64.791Z" fill="#00183D"/>
<path fill-rule="evenodd" clip-rule="evenodd" d="M31.8321 69.8955C31.8321 65.9368 35.0413 62.7276 39 62.7276C42.9587 62.7276 46.1679 65.9368 46.1679 69.8955C46.1679 73.8542 42.9587 77.0634 39 77.0634C35.0413 77.0634 31.8321 73.8542 31.8321 69.8955ZM33.8955 69.8955C33.8955 67.0764 36.1809 64.791 39 64.791C41.8191 64.791 44.1045 67.0764 44.1045 69.8955C44.1045 72.7146 41.8191 75 39 75C36.1809 75 33.8955 72.7146 33.8955 69.8955Z" fill="#00183D"/>
<path d="M96.9111 3.86912V19.925H93V3.86912H96.9111Z" fill="#00183D"/>
<path d="M107.75 7.02541C109.245 7.02541 110.434 7.51334 111.318 8.4892C112.218 9.44981 112.668 10.7764 112.668 12.4689V19.925H108.78V12.9949C108.78 12.141 108.559 11.4778 108.116 11.0051C107.674 10.5324 107.08 10.2961 106.332 10.2961C105.585 10.2961 104.991 10.5324 104.548 11.0051C104.106 11.4778 103.885 12.141 103.885 12.9949V19.925H99.9741V7.16264H103.885V8.85515C104.282 8.29098 104.815 7.84879 105.486 7.52859C106.157 7.19314 106.912 7.02541 107.75 7.02541Z" fill="#00183D"/>
<path d="M120.806 20.108C119.693 20.108 118.702 19.9174 117.833 19.5362C116.964 19.155 116.278 18.6366 115.774 17.9809C115.271 17.31 114.989 16.5629 114.928 15.7395H118.794C118.839 16.1817 119.045 16.54 119.411 16.8145C119.777 17.0889 120.227 17.2262 120.76 17.2262C121.248 17.2262 121.622 17.1347 121.881 16.9517C122.156 16.7535 122.293 16.5019 122.293 16.1969C122.293 15.831 122.102 15.5642 121.721 15.3964C121.34 15.2135 120.722 15.0152 119.868 14.8018C118.954 14.5883 118.191 14.3672 117.581 14.1385C116.971 13.8945 116.445 13.521 116.003 13.0178C115.561 12.4994 115.34 11.8056 115.34 10.9365C115.34 10.2046 115.538 9.5413 115.935 8.94663C116.346 8.33672 116.941 7.85642 117.719 7.50572C118.511 7.15502 119.449 6.97967 120.532 6.97967C122.133 6.97967 123.391 7.37611 124.306 8.169C125.236 8.96188 125.769 10.014 125.907 11.3253H122.293C122.232 10.8831 122.034 10.5324 121.698 10.2732C121.378 10.014 120.951 9.88437 120.417 9.88437C119.96 9.88437 119.609 9.97586 119.365 10.1588C119.121 10.3266 118.999 10.5629 118.999 10.8679C118.999 11.2338 119.19 11.5083 119.571 11.6912C119.968 11.8742 120.578 12.0572 121.401 12.2402C122.346 12.4841 123.116 12.7281 123.711 12.972C124.306 13.2008 124.824 13.582 125.266 14.1156C125.724 14.6341 125.96 15.3355 125.975 16.2198C125.975 16.967 125.762 17.6379 125.335 18.2325C124.923 18.8119 124.321 19.2694 123.528 19.6048C122.75 19.9403 121.843 20.108 120.806 20.108Z" fill="#00183D"/>
<path d="M141.199 7.16264V19.925H137.288V18.1868C136.891 18.751 136.35 19.2084 135.664 19.5591C134.993 19.8945 134.246 20.0623 133.423 20.0623C132.447 20.0623 131.585 19.8488 130.838 19.4219C130.091 18.9797 129.512 18.3469 129.1 17.5235C128.688 16.7001 128.482 15.7319 128.482 14.6188V7.16264H132.371V14.0928C132.371 14.9466 132.592 15.6099 133.034 16.0826C133.476 16.5553 134.071 16.7916 134.818 16.7916C135.58 16.7916 136.182 16.5553 136.625 16.0826C137.067 15.6099 137.288 14.9466 137.288 14.0928V7.16264H141.199Z" fill="#00183D"/>
<path d="M148.148 9.28971C148.605 8.58831 149.177 8.03939 149.863 7.64295C150.55 7.23126 151.312 7.02541 152.151 7.02541V11.1652H151.076C150.1 11.1652 149.368 11.3787 148.88 11.8056C148.392 12.2173 148.148 12.9492 148.148 14.0013V19.925H144.237V7.16264H148.148V9.28971Z" fill="#00183D"/>
<path d="M166.279 13.338C166.279 13.7039 166.256 14.0851 166.211 14.4816H157.359C157.42 15.2745 157.672 15.8844 158.114 16.3113C158.571 16.723 159.128 16.9288 159.784 16.9288C160.76 16.9288 161.438 16.5172 161.819 15.6938H165.982C165.768 16.5324 165.38 17.2872 164.815 17.9581C164.266 18.629 163.573 19.155 162.734 19.5362C161.895 19.9174 160.958 20.108 159.921 20.108C158.671 20.108 157.557 19.8412 156.582 19.3075C155.606 18.7738 154.843 18.0114 154.294 17.0203C153.746 16.0292 153.471 14.8704 153.471 13.5438C153.471 12.2173 153.738 11.0584 154.272 10.0673C154.82 9.07624 155.583 8.31385 156.559 7.78018C157.535 7.24651 158.655 6.97967 159.921 6.97967C161.156 6.97967 162.254 7.23888 163.214 7.75731C164.175 8.27573 164.922 9.01525 165.456 9.97586C166.005 10.9365 166.279 12.0572 166.279 13.338ZM162.277 12.3088C162.277 11.6379 162.048 11.1042 161.591 10.7077C161.133 10.3113 160.561 10.1131 159.875 10.1131C159.219 10.1131 158.663 10.3037 158.206 10.6849C157.763 11.0661 157.489 11.6074 157.382 12.3088H162.277Z" fill="#00183D"/>
<path d="M167.794 13.521C167.794 12.2097 168.038 11.0584 168.525 10.0673C169.029 9.07624 169.707 8.31385 170.561 7.78018C171.415 7.24651 172.368 6.97967 173.42 6.97967C174.259 6.97967 175.021 7.15502 175.707 7.50572C176.409 7.85642 176.957 8.3291 177.354 8.92376V3H181.265V19.925H177.354V18.0953C176.988 18.7052 176.462 19.1931 175.776 19.5591C175.105 19.925 174.32 20.108 173.42 20.108C172.368 20.108 171.415 19.8412 170.561 19.3075C169.707 18.7586 169.029 17.9886 168.525 16.9975C168.038 15.9911 167.794 14.8323 167.794 13.521ZM177.354 13.5438C177.354 12.568 177.079 11.798 176.531 11.2338C175.997 10.6696 175.341 10.3875 174.564 10.3875C173.786 10.3875 173.123 10.6696 172.574 11.2338C172.04 11.7827 171.773 12.5451 171.773 13.521C171.773 14.4968 172.04 15.2745 172.574 15.8539C173.123 16.418 173.786 16.7001 174.564 16.7001C175.341 16.7001 175.997 16.418 176.531 15.8539C177.079 15.2897 177.354 14.5197 177.354 13.5438Z" fill="#00183D"/>
<path d="M101.188 47.371L97.8488 41.31H96.9111V47.371H93V31.3151H99.5642C100.83 31.3151 101.905 31.5362 102.789 31.9784C103.689 32.4206 104.36 33.0305 104.802 33.8081C105.244 34.5705 105.465 35.4244 105.465 36.3698C105.465 37.4371 105.16 38.3901 104.55 39.2287C103.956 40.0673 103.071 40.662 101.897 41.0127L105.602 47.371H101.188ZM96.9111 38.5426H99.3355C100.052 38.5426 100.586 38.3672 100.936 38.0165C101.302 37.6658 101.485 37.1703 101.485 36.5299C101.485 35.9199 101.302 35.4396 100.936 35.0889C100.586 34.7382 100.052 34.5629 99.3355 34.5629H96.9111V38.5426Z" fill="#00183D"/>
<path d="M120.179 40.784C120.179 41.1499 120.157 41.5311 120.111 41.9276H111.259C111.32 42.7205 111.572 43.3304 112.014 43.7573C112.472 44.169 113.028 44.3748 113.684 44.3748C114.66 44.3748 115.338 43.9631 115.719 43.1398H119.882C119.669 43.9784 119.28 44.7332 118.716 45.4041C118.167 46.075 117.473 46.601 116.634 46.9822C115.796 47.3634 114.858 47.554 113.821 47.554C112.571 47.554 111.458 47.2872 110.482 46.7535C109.506 46.2198 108.744 45.4574 108.195 44.4663C107.646 43.4752 107.371 42.3164 107.371 40.9898C107.371 39.6633 107.638 38.5044 108.172 37.5133C108.721 36.5222 109.483 35.7598 110.459 35.2262C111.435 34.6925 112.556 34.4257 113.821 34.4257C115.056 34.4257 116.154 34.6849 117.115 35.2033C118.075 35.7217 118.822 36.4612 119.356 37.4219C119.905 38.3825 120.179 39.5032 120.179 40.784ZM116.177 39.7548C116.177 39.0839 115.948 38.5502 115.491 38.1537C115.033 37.7573 114.461 37.5591 113.775 37.5591C113.12 37.5591 112.563 37.7497 112.106 38.1309C111.664 38.5121 111.389 39.0534 111.282 39.7548H116.177Z" fill="#00183D"/>
<path d="M129.584 44.0546V47.371H127.595C126.177 47.371 125.071 47.028 124.278 46.3418C123.485 45.6404 123.089 44.5044 123.089 42.9339V37.8564H121.534V34.6086H123.089V31.4981H127V34.6086H129.562V37.8564H127V42.9797C127 43.3609 127.091 43.6353 127.274 43.803C127.457 43.9708 127.762 44.0546 128.189 44.0546H129.584Z" fill="#00183D"/>
<path d="M133.959 33.2821C133.273 33.2821 132.708 33.0839 132.266 32.6874C131.839 32.2757 131.626 31.7726 131.626 31.1779C131.626 30.568 131.839 30.0648 132.266 29.6684C132.708 29.2567 133.273 29.0508 133.959 29.0508C134.63 29.0508 135.179 29.2567 135.605 29.6684C136.048 30.0648 136.269 30.568 136.269 31.1779C136.269 31.7726 136.048 32.2757 135.605 32.6874C135.179 33.0839 134.63 33.2821 133.959 33.2821ZM135.903 34.6086V47.371H131.992V34.6086H135.903Z" fill="#00183D"/>
<path d="M142.877 36.7357C143.334 36.0343 143.906 35.4854 144.592 35.0889C145.278 34.6773 146.041 34.4714 146.879 34.4714V38.6112H145.804C144.829 38.6112 144.097 38.8246 143.609 39.2516C143.121 39.6633 142.877 40.3952 142.877 41.4473V47.371H138.966V34.6086H142.877V36.7357Z" fill="#00183D"/>
<path d="M161.008 40.784C161.008 41.1499 160.985 41.5311 160.939 41.9276H152.088C152.149 42.7205 152.401 43.3304 152.843 43.7573C153.3 44.169 153.857 44.3748 154.512 44.3748C155.488 44.3748 156.167 43.9631 156.548 43.1398H160.711C160.497 43.9784 160.108 44.7332 159.544 45.4041C158.995 46.075 158.302 46.601 157.463 46.9822C156.624 47.3634 155.687 47.554 154.65 47.554C153.399 47.554 152.286 47.2872 151.31 46.7535C150.335 46.2198 149.572 45.4574 149.023 44.4663C148.474 43.4752 148.2 42.3164 148.2 40.9898C148.2 39.6633 148.467 38.5044 149 37.5133C149.549 36.5222 150.312 35.7598 151.288 35.2262C152.263 34.6925 153.384 34.4257 154.65 34.4257C155.885 34.4257 156.983 34.6849 157.943 35.2033C158.904 35.7217 159.651 36.4612 160.185 37.4219C160.734 38.3825 161.008 39.5032 161.008 40.784ZM157.005 39.7548C157.005 39.0839 156.777 38.5502 156.319 38.1537C155.862 37.7573 155.29 37.5591 154.604 37.5591C153.948 37.5591 153.392 37.7497 152.934 38.1309C152.492 38.5121 152.218 39.0534 152.111 39.7548H157.005Z" fill="#00183D"/>
<path d="M179.585 34.4714C181.17 34.4714 182.428 34.9517 183.358 35.9123C184.304 36.8729 184.776 38.2071 184.776 39.9149V47.371H180.888V40.4409C180.888 39.6175 180.667 38.9847 180.225 38.5426C179.798 38.0851 179.203 37.8564 178.441 37.8564C177.679 37.8564 177.076 38.0851 176.634 38.5426C176.207 38.9847 175.994 39.6175 175.994 40.4409V47.371H172.106V40.4409C172.106 39.6175 171.884 38.9847 171.442 38.5426C171.015 38.0851 170.421 37.8564 169.658 37.8564C168.896 37.8564 168.294 38.0851 167.851 38.5426C167.425 38.9847 167.211 39.6175 167.211 40.4409V47.371H163.3V34.6086H167.211V36.2097C167.607 35.676 168.126 35.2567 168.766 34.9517C169.407 34.6315 170.131 34.4714 170.939 34.4714C171.9 34.4714 172.754 34.6773 173.501 35.0889C174.263 35.5006 174.858 36.0877 175.285 36.8501C175.727 36.1487 176.329 35.5769 177.092 35.1347C177.854 34.6925 178.685 34.4714 179.585 34.4714Z" fill="#00183D"/>
<path d="M199.771 40.784C199.771 41.1499 199.748 41.5311 199.702 41.9276H190.851C190.912 42.7205 191.164 43.3304 191.606 43.7573C192.063 44.169 192.62 44.3748 193.275 44.3748C194.251 44.3748 194.93 43.9631 195.311 43.1398H199.474C199.26 43.9784 198.871 44.7332 198.307 45.4041C197.758 46.075 197.065 46.601 196.226 46.9822C195.387 47.3634 194.45 47.554 193.413 47.554C192.162 47.554 191.049 47.2872 190.073 46.7535C189.098 46.2198 188.335 45.4574 187.786 44.4663C187.237 43.4752 186.963 42.3164 186.963 40.9898C186.963 39.6633 187.23 38.5044 187.763 37.5133C188.312 36.5222 189.075 35.7598 190.051 35.2262C191.026 34.6925 192.147 34.4257 193.413 34.4257C194.648 34.4257 195.746 34.6849 196.706 35.2033C197.667 35.7217 198.414 36.4612 198.948 37.4219C199.497 38.3825 199.771 39.5032 199.771 40.784ZM195.768 39.7548C195.768 39.0839 195.54 38.5502 195.082 38.1537C194.625 37.7573 194.053 37.5591 193.367 37.5591C192.711 37.5591 192.155 37.7497 191.697 38.1309C191.255 38.5121 190.981 39.0534 190.874 39.7548H195.768Z" fill="#00183D"/>
<path d="M209.839 34.4714C211.334 34.4714 212.523 34.9593 213.407 35.9352C214.307 36.8958 214.757 38.2224 214.757 39.9149V47.371H210.869V40.4409C210.869 39.587 210.647 38.9238 210.205 38.4511C209.763 37.9784 209.168 37.7421 208.421 37.7421C207.674 37.7421 207.08 37.9784 206.637 38.4511C206.195 38.9238 205.974 39.587 205.974 40.4409V47.371H202.063V34.6086H205.974V36.3011C206.37 35.737 206.904 35.2948 207.575 34.9746C208.246 34.6391 209.001 34.4714 209.839 34.4714Z" fill="#00183D"/>
<path d="M224.816 44.0546V47.371H222.827C221.408 47.371 220.303 47.028 219.51 46.3418C218.717 45.6404 218.321 44.5044 218.321 42.9339V37.8564H216.766V34.6086H218.321V31.4981H222.232V34.6086H224.793V37.8564H222.232V42.9797C222.232 43.3609 222.323 43.6353 222.506 43.803C222.689 43.9708 222.994 44.0546 223.421 44.0546H224.816Z" fill="#00183D"/>
<path d="M96.9111 58.7611V74.817H93V58.7611H96.9111Z" fill="#00183D"/>
<path d="M107.75 61.9174C109.245 61.9174 110.434 62.4053 111.318 63.3812C112.218 64.3418 112.668 65.6684 112.668 67.3609V74.817H108.78V67.8869C108.78 67.033 108.559 66.3698 108.116 65.8971C107.674 65.4244 107.08 65.188 106.332 65.188C105.585 65.188 104.991 65.4244 104.548 65.8971C104.106 66.3698 103.885 67.033 103.885 67.8869V74.817H99.9741V62.0546H103.885V63.7471C104.282 63.183 104.815 62.7408 105.486 62.4206C106.157 62.0851 106.912 61.9174 107.75 61.9174Z" fill="#00183D"/>
<path d="M120.806 75C119.693 75 118.702 74.8094 117.833 74.4282C116.964 74.047 116.278 73.5286 115.774 72.8729C115.271 72.202 114.989 71.4549 114.928 70.6315H118.794C118.839 71.0737 119.045 71.432 119.411 71.7065C119.777 71.9809 120.227 72.1182 120.76 72.1182C121.248 72.1182 121.622 72.0267 121.881 71.8437C122.156 71.6455 122.293 71.3939 122.293 71.0889C122.293 70.723 122.102 70.4562 121.721 70.2884C121.34 70.1055 120.722 69.9072 119.868 69.6938C118.954 69.4803 118.191 69.2592 117.581 69.0305C116.971 68.7865 116.445 68.413 116.003 67.9098C115.561 67.3914 115.34 66.6976 115.34 65.8285C115.34 65.0966 115.538 64.4333 115.935 63.8386C116.346 63.2287 116.941 62.7484 117.719 62.3977C118.511 62.047 119.449 61.8717 120.532 61.8717C122.133 61.8717 123.391 62.2681 124.306 63.061C125.236 63.8539 125.769 64.906 125.907 66.2173H122.293C122.232 65.7751 122.034 65.4244 121.698 65.1652C121.378 64.906 120.951 64.7764 120.417 64.7764C119.96 64.7764 119.609 64.8678 119.365 65.0508C119.121 65.2185 118.999 65.4549 118.999 65.7598C118.999 66.1258 119.19 66.4002 119.571 66.5832C119.968 66.7662 120.578 66.9492 121.401 67.1321C122.346 67.3761 123.116 67.6201 123.711 67.864C124.306 68.0928 124.824 68.4739 125.266 69.0076C125.724 69.526 125.96 70.2274 125.975 71.1118C125.975 71.8589 125.762 72.5299 125.335 73.1245C124.923 73.7039 124.321 74.1614 123.528 74.4968C122.75 74.8323 121.843 75 120.806 75Z" fill="#00183D"/>
<path d="M135.71 71.5006V74.817H133.72C132.302 74.817 131.196 74.4739 130.404 73.7878C129.611 73.0864 129.214 71.9504 129.214 70.3799V65.3024H127.659V62.0546H129.214V58.9441H133.125V62.0546H135.687V65.3024H133.125V70.4257C133.125 70.8069 133.217 71.0813 133.4 71.249C133.583 71.4168 133.888 71.5006 134.315 71.5006H135.71Z" fill="#00183D"/>
<path d="M140.084 60.7281C139.398 60.7281 138.834 60.5299 138.391 60.1334C137.965 59.7217 137.751 59.2185 137.751 58.6239C137.751 58.014 137.965 57.5108 138.391 57.1144C138.834 56.7027 139.398 56.4968 140.084 56.4968C140.755 56.4968 141.304 56.7027 141.731 57.1144C142.173 57.5108 142.394 58.014 142.394 58.6239C142.394 59.2185 142.173 59.7217 141.731 60.1334C141.304 60.5299 140.755 60.7281 140.084 60.7281ZM142.028 62.0546V74.817H138.117V62.0546H142.028Z" fill="#00183D"/>
<path d="M152.204 71.5006V74.817H150.214C148.796 74.817 147.691 74.4739 146.898 73.7878C146.105 73.0864 145.709 71.9504 145.709 70.3799V65.3024H144.153V62.0546H145.709V58.9441H149.62V62.0546H152.181V65.3024H149.62V70.4257C149.62 70.8069 149.711 71.0813 149.894 71.249C150.077 71.4168 150.382 71.5006 150.809 71.5006H152.204Z" fill="#00183D"/>
<path d="M167.214 62.0546V74.817H163.303V73.0788C162.906 73.643 162.365 74.1004 161.679 74.4511C161.008 74.7865 160.261 74.9543 159.437 74.9543C158.461 74.9543 157.6 74.7408 156.853 74.3138C156.106 73.8717 155.526 73.2389 155.115 72.4155C154.703 71.5921 154.497 70.6239 154.497 69.5108V62.0546H158.385V68.9847C158.385 69.8386 158.606 70.5019 159.049 70.9746C159.491 71.4473 160.085 71.6836 160.833 71.6836C161.595 71.6836 162.197 71.4473 162.639 70.9746C163.082 70.5019 163.303 69.8386 163.303 68.9847V62.0546H167.214Z" fill="#00183D"/>
<path d="M177.365 71.5006V74.817H175.375C173.957 74.817 172.851 74.4739 172.059 73.7878C171.266 73.0864 170.869 71.9504 170.869 70.3799V65.3024H169.314V62.0546H170.869V58.9441H174.78V62.0546H177.342V65.3024H174.78V70.4257C174.78 70.8069 174.872 71.0813 175.055 71.249C175.238 71.4168 175.543 71.5006 175.97 71.5006H177.365Z" fill="#00183D"/>
<path d="M191.803 68.23C191.803 68.5959 191.78 68.9771 191.734 69.3736H182.883C182.944 70.1665 183.195 70.7764 183.637 71.2033C184.095 71.615 184.651 71.8208 185.307 71.8208C186.283 71.8208 186.961 71.4091 187.343 70.5858H191.505C191.292 71.4244 190.903 72.1792 190.339 72.8501C189.79 73.521 189.096 74.047 188.257 74.4282C187.419 74.8094 186.481 75 185.444 75C184.194 75 183.081 74.7332 182.105 74.1995C181.129 73.6658 180.367 72.9034 179.818 71.9123C179.269 70.9212 178.994 69.7624 178.994 68.4358C178.994 67.1093 179.261 65.9504 179.795 64.9593C180.344 63.9682 181.106 63.2058 182.082 62.6722C183.058 62.1385 184.179 61.8717 185.444 61.8717C186.679 61.8717 187.777 62.1309 188.738 62.6493C189.698 63.1677 190.445 63.9072 190.979 64.8678C191.528 65.8285 191.803 66.9492 191.803 68.23ZM187.8 67.2008C187.8 66.5299 187.571 65.9962 187.114 65.5997C186.656 65.2033 186.085 65.0051 185.398 65.0051C184.743 65.0051 184.186 65.1957 183.729 65.5769C183.287 65.9581 183.012 66.4994 182.905 67.2008H187.8Z" fill="#00183D"/>
</svg>
